<?xml version="1.0" encoding="iso-8859-1"?>
<!-- Uploaded to: SVG Repo, www.svgrepo.com, Generator: SVG Repo Mixer Tools -->
<svg version="1.1" id="Layer_1" xmlns="http://www.w3.org/2000/svg" xmlns:xlink="http://www.w3.org/1999/xlink" 
	 viewBox="0 0 512 512" xml:space="preserve">
<path style="fill:#E6E6E6;" d="M0,88.124v335.752c0,15.338,12.437,27.775,27.775,27.775h456.45
	c15.338,0,27.775-12.438,27.775-27.775V88.124c0-15.35-12.437-27.775-27.775-27.775H27.775C12.437,60.349,0,72.774,0,88.124z"/>
<circle style="fill:#4D4D4D;" cx="326.384" cy="255.994" r="152.927"/>
<g>
	<path style="fill:#247396;" d="M203.732,254.289c0,35.796,36.827,59.761,69.553,45.248l32.216-14.27
		c-9.125-6.516-15.083-17.194-15.083-29.268c0-0.57,0.012-1.141,0.049-1.711L203.732,254.289L203.732,254.289z"/>
	<path style="fill:#247396;" d="M324.685,291.905v86.747c35.784,0,59.748-36.839,45.248-69.565l-14.27-32.228
		c-6.516,9.137-17.206,15.095-29.292,15.095C325.802,291.953,325.243,291.941,324.685,291.905z"/>
	<path style="fill:#247396;" d="M347.243,226.72c9.137,6.504,15.095,17.194,15.095,29.28c0,0.57-0.012,1.141-0.049,1.699h0.012
		h86.735c0-35.796-36.827-59.761-69.553-45.26l-32.228,14.27L347.243,226.72z"/>
	<path style="fill:#247396;" d="M328.083,220.083v-86.747c-35.784,0-59.749,36.827-45.248,69.553l14.27,32.228
		c6.516-9.137,17.194-15.083,29.268-15.083C326.942,220.034,327.513,220.047,328.083,220.083z"/>
</g>
<g>
	<rect x="40.784" y="111.306" style="fill:#4D4D4D;" width="94.641" height="18.201"/>
	<rect x="40.784" y="246.893" style="fill:#4D4D4D;" width="94.641" height="18.201"/>
	<rect x="40.784" y="337.293" style="fill:#4D4D4D;" width="94.641" height="18.201"/>
	<rect x="40.784" y="292.093" style="fill:#4D4D4D;" width="94.641" height="18.201"/>
	<rect x="40.784" y="382.492" style="fill:#4D4D4D;" width="94.641" height="18.201"/>
	<rect x="40.784" y="201.706" style="fill:#4D4D4D;" width="94.641" height="18.201"/>
	<rect x="40.784" y="156.506" style="fill:#4D4D4D;" width="94.641" height="18.201"/>
</g>
<path style="fill:#E6E6E6;" d="M328.443,212.497c-0.69-0.044-1.382-0.058-2.073-0.058c-14.624,0-27.558,7.202-35.45,18.269
	c-4.732,6.599-7.642,14.595-8.039,23.222c-0.044,0.69-0.058,1.382-0.058,2.072c0,14.624,7.216,27.558,18.269,35.45h0.015
	c6.599,4.732,14.579,7.658,23.222,8.039c0.676,0.044,1.352,0.058,2.043,0.058c14.639,0,27.587-7.216,35.479-18.284
	c4.718-6.599,7.628-14.579,8.024-23.207c0.044-0.676,0.058-1.366,0.058-2.058c0-14.639-7.216-27.587-18.284-35.464
	C345.051,215.804,337.071,212.893,328.443,212.497z"/>
</svg>