<?xml version="1.0" encoding="iso-8859-1"?>
<!-- Uploaded to: SVG Repo, www.svgrepo.com, Generator: SVG Repo Mixer Tools -->
<svg height="800px" width="800px" version="1.1" id="Capa_1" xmlns="http://www.w3.org/2000/svg" xmlns:xlink="http://www.w3.org/1999/xlink" 
	 viewBox="0 0 312.746 312.746" xml:space="preserve">
<g>
	<path style="fill:#010002;" d="M286.236,46.232h-5.439v-9.953C280.797,16.274,264.523,0,244.524,0H81.379
		C61.374,0,45.106,16.274,45.106,36.279v9.953h-4.988c-0.272,0-0.538,0.027-0.805,0.065c-3.65,0.544-8.501,1.534-10.867,3.149
		c-2.29,1.556-4.873,5.526-6.636,8.572c-0.479,0.827-0.729,1.768-0.729,2.72v48.043c0,0.734,0.147,1.458,0.43,2.127
		c1.49,3.519,3.726,8.126,5.907,10.084c2.181,1.953,7.011,3.688,10.677,4.786c0.506,0.152,1.033,0.228,1.566,0.228h111.892
		c2.17,0.43,4.607,1.12,5.918,1.659c0.158,1.354,0.185,3.753,0.033,6.048v43.425c-14.849,2.203-26.287,15.001-26.287,30.453v74.336
		c0,16.997,13.826,30.818,30.823,30.818s30.823-13.821,30.823-30.818v-74.336c0-14.821-10.519-27.223-24.476-30.154l-0.011-43.328
		c0.468-6.445-0.218-10.9-2.034-13.25c-1.92-2.48-6.391-4.384-13.288-5.646c-0.326-0.06-0.653-0.092-0.979-0.092H40.488
		c-2.545-0.805-5.232-1.855-5.662-2.094c-0.533-0.62-1.811-3.035-2.866-5.385V62.234c1.088-1.768,2.235-3.443,2.399-3.677
		c0.761-0.375,3.628-1.044,6.179-1.458h4.563v9.959c0,20.005,16.274,36.273,36.273,36.273h163.139
		c20.005,0,36.273-16.268,36.273-36.273v-9.959h5.439c3.002,0,5.439-2.431,5.439-5.439
		C291.675,48.669,289.244,46.232,286.236,46.232z M181.986,207.593v74.336c0,10.992-8.947,19.94-19.945,19.94
		c-10.992,0-19.945-8.947-19.945-19.94v-74.336c0-9.518,6.717-17.476,15.648-19.445c1.387-0.31,2.817-0.5,4.297-0.5
		c2.105,0,4.096,0.419,6.005,1.023C176.101,191.238,181.986,198.7,181.986,207.593z M269.919,67.069
		c0,14.006-11.395,25.395-25.395,25.395H81.379c-14.006,0-25.395-11.389-25.395-25.395V57.11V46.232v-9.953
		c0-14,11.395-25.4,25.395-25.4h163.139c14.006,0,25.395,11.4,25.395,25.4v9.953V57.11v9.959H269.919z"/>
</g>
</svg>